<?xml version="1.0" encoding="utf-8" standalone="no"?>
<!DOCTYPE svg PUBLIC "-//W3C//DTD SVG 1.1//EN"
  "http://www.w3.org/Graphics/SVG/1.1/DTD/svg11.dtd">
<!-- Created with matplotlib (http://matplotlib.org/) -->
<svg height="288pt" version="1.1" viewBox="0 0 432 288" width="432pt" xmlns="http://www.w3.org/2000/svg" xmlns:xlink="http://www.w3.org/1999/xlink">
 <defs>
  <style type="text/css">
*{stroke-linecap:butt;stroke-linejoin:round;}
  </style>
 </defs>
 <g id="figure_1">
  <g id="patch_1">
   <path d="M 0 288 
L 432 288 
L 432 0 
L 0 0 
z
" style="fill:#ffffff;"/>
  </g>
  <g id="axes_1">
   <g id="LineCollection_1">
    <path clip-path="url(#pcd813fbe6a)" d="M 361.248555 160.1512 
L 359.583815 159.638192 
L 357.919075 158.73927 
L 356.254335 157.393122 
L 354.877029 155.870968 
L 353.757225 154.31718 
L 352.844554 152.774194 
L 351.840077 150.709677 
L 350.658738 147.612903 
L 349.769665 144.516129 
L 349.108889 141.419355 
L 348.632064 138.322581 
L 348.248884 134.193548 
L 348.114605 130.064516 
L 348.2117 125.935484 
L 348.527145 121.806452 
L 349.06055 117.677419 
L 349.816578 113.548387 
L 350.812773 109.419355 
L 352.092486 105.231126 
L 353.652994 101.16129 
L 354.589595 99.086272 
L 356.254335 95.928262 
L 357.919075 93.310878 
L 359.583815 91.136563 
L 361.248555 89.350616 
L 363.152046 87.741935 
L 364.759761 86.709677 
L 366.242775 86.013943 
L 367.907514 85.531396 
L 369.572254 85.365777 
L 371.236994 85.52622 
L 372.901734 86.039227 
L 374.566474 86.938149 
L 376.231214 88.284297 
L 377.60852 89.806452 
L 378.728324 91.36024 
L 379.640995 92.903226 
L 380.645472 94.967742 
L 381.826811 98.064516 
L 382.715884 101.16129 
L 383.37666 104.258065 
L 383.853486 107.354839 
L 384.236665 111.483871 
L 384.370944 115.612903 
L 384.273849 119.741935 
L 383.958404 123.870968 
L 383.424999 128 
L 382.668971 132.129032 
L 381.672776 136.258065 
L 380.393064 140.446294 
L 378.832556 144.516129 
L 377.895954 146.591148 
L 376.231214 149.749157 
L 374.566474 152.366542 
L 372.901734 154.540856 
L 371.236994 156.326803 
L 369.333503 157.935484 
L 367.725788 158.967742 
L 366.242775 159.663477 
L 364.578035 160.146023 
L 362.913295 160.311642 
L 361.248555 160.1512 
L 361.248555 160.1512 
" style="fill:none;stroke:#3498db;"/>
   </g>
   <g id="LineCollection_2">
    <path clip-path="url(#pcd813fbe6a)" d="M 359.583815 169.505382 
L 357.919075 168.960126 
L 356.254335 168.107372 
L 354.589595 166.910113 
L 352.783493 165.16129 
L 351.146066 163.096774 
L 349.595376 160.60919 
L 348.270067 157.935484 
L 347.037477 154.83871 
L 346.059943 151.741935 
L 345.280147 148.645161 
L 344.497011 144.516129 
L 343.963757 140.387097 
L 343.646579 136.258065 
L 343.527266 132.129032 
L 343.590842 128 
L 343.917888 122.83871 
L 344.515195 117.677419 
L 345.192005 113.548387 
L 346.051705 109.419355 
L 347.106811 105.290323 
L 348.38275 101.16129 
L 349.905398 97.032258 
L 351.260116 93.885438 
L 352.924855 90.552724 
L 354.589595 87.686785 
L 356.681815 84.645161 
L 358.363301 82.580645 
L 359.583815 81.269792 
L 361.559564 79.483871 
L 362.935293 78.451613 
L 364.649023 77.419355 
L 366.242775 76.694255 
L 367.907514 76.180855 
L 369.572254 75.91832 
L 371.236994 75.911733 
L 372.901734 76.172037 
L 374.566474 76.717293 
L 376.231214 77.570047 
L 377.895954 78.767306 
L 379.702056 80.516129 
L 381.339483 82.580645 
L 382.890173 85.068229 
L 384.215482 87.741935 
L 385.448072 90.83871 
L 386.425606 93.935484 
L 387.205402 97.032258 
L 387.988539 101.16129 
L 388.521792 105.290323 
L 388.83897 109.419355 
L 388.958284 113.548387 
L 388.894707 117.677419 
L 388.567661 122.83871 
L 387.970355 128 
L 387.293544 132.129032 
L 386.433844 136.258065 
L 385.378738 140.387097 
L 384.102799 144.516129 
L 382.580152 148.645161 
L 381.225434 151.791982 
L 379.560694 155.124696 
L 377.895954 157.990635 
L 375.803735 161.032258 
L 374.122248 163.096774 
L 372.901734 164.407627 
L 370.925986 166.193548 
L 369.550256 167.225806 
L 367.836526 168.258065 
L 366.242775 168.983165 
L 364.578035 169.496564 
L 362.913295 169.759099 
L 361.248555 169.765687 
L 359.583815 169.505382 
L 359.583815 169.505382 
" style="fill:none;stroke:#5dade2;"/>
   </g>
   <g id="LineCollection_3">
    <path clip-path="url(#pcd813fbe6a)" d="M 361.248555 178.594014 
L 359.583815 178.482611 
L 357.919075 178.141316 
L 356.232837 177.548387 
L 354.274704 176.516129 
L 352.800672 175.483871 
L 351.260116 174.13482 
L 349.595376 172.322951 
L 347.930636 170.078295 
L 346.224637 167.225806 
L 344.601156 163.827477 
L 343.510761 161.032258 
L 342.502681 157.935484 
L 341.425478 153.806452 
L 340.603673 149.677419 
L 339.999123 145.548387 
L 339.584743 141.419355 
L 339.311737 136.258065 
L 339.28721 131.096774 
L 339.497811 125.935484 
L 339.937841 120.774194 
L 340.605492 115.612903 
L 341.507054 110.451613 
L 342.65437 105.290323 
L 343.768786 101.137774 
L 345.057981 97.032258 
L 346.562563 92.903226 
L 348.310997 88.774194 
L 349.811925 85.677419 
L 351.512344 82.580645 
L 353.462494 79.483871 
L 355.421965 76.791814 
L 357.53228 74.322581 
L 358.751445 73.070765 
L 360.847765 71.225806 
L 362.235127 70.193548 
L 363.889034 69.16129 
L 365.410405 68.392794 
L 367.075145 67.755656 
L 368.739884 67.327557 
L 370.831348 67.096774 
L 372.069364 67.110988 
L 373.734104 67.336046 
L 375.398844 67.796554 
L 377.063584 68.508243 
L 378.728324 69.491944 
L 380.393064 70.776299 
L 382.057803 72.399347 
L 383.722543 74.417358 
L 385.387283 76.912888 
L 386.791994 79.483871 
L 387.884393 81.849943 
L 388.974788 84.645161 
L 389.982868 87.741935 
L 391.060071 91.870968 
L 391.881876 96 
L 392.486426 100.129032 
L 392.900806 104.258065 
L 393.173812 109.419355 
L 393.19834 114.580645 
L 392.987738 119.741935 
L 392.547708 124.903226 
L 391.880058 130.064516 
L 390.978495 135.225806 
L 389.831179 140.387097 
L 388.716763 144.539645 
L 387.427568 148.645161 
L 385.922987 152.774194 
L 384.174552 156.903226 
L 382.673624 160 
L 380.973205 163.096774 
L 379.023055 166.193548 
L 377.063584 168.885605 
L 374.953269 171.354839 
L 373.734104 172.606654 
L 371.637784 174.451613 
L 370.250422 175.483871 
L 368.596515 176.516129 
L 367.075145 177.284625 
L 365.410405 177.921763 
L 363.745665 178.349863 
L 361.654201 178.580645 
L 361.248555 178.594014 
L 361.248555 178.594014 
" style="fill:none;stroke:#85c1e9;"/>
   </g>
   <g id="LineCollection_4">
    <path clip-path="url(#pcd813fbe6a)" d="M 355.421965 195.174432 
L 353.757225 194.62799 
L 352.092486 193.885766 
L 350.427746 192.935775 
L 348.763006 191.762093 
L 346.673264 189.935484 
L 345.433526 188.656545 
L 343.768786 186.664742 
L 342.104046 184.322647 
L 340.439306 181.567322 
L 338.774566 178.303462 
L 337.545453 175.483871 
L 336.021001 171.354839 
L 334.766005 167.225806 
L 333.734925 163.096774 
L 332.714211 157.935484 
L 331.952592 152.774194 
L 331.4209 147.612903 
L 331.098327 142.451613 
L 330.970497 137.290323 
L 331.060761 131.096774 
L 331.406773 124.903226 
L 332.003429 118.709677 
L 332.851974 112.516129 
L 333.958688 106.322581 
L 335.087436 101.16129 
L 336.416738 96 
L 337.962569 90.83871 
L 339.748434 85.677419 
L 341.808586 80.516129 
L 343.768786 76.216954 
L 345.809582 72.258065 
L 347.930636 68.610548 
L 350.298108 65.032258 
L 352.092486 62.623872 
L 354.589595 59.673214 
L 357.086705 57.150313 
L 359.583815 55.026999 
L 362.080925 53.28331 
L 364.578035 51.906998 
L 367.075145 50.891298 
L 368.739884 50.414109 
L 370.404624 50.097296 
L 372.069364 49.943916 
L 373.734104 49.956946 
L 375.398844 50.141116 
L 377.323622 50.580645 
L 378.728324 51.049429 
L 380.393064 51.791654 
L 382.057803 52.741645 
L 383.722543 53.915327 
L 385.812285 55.741935 
L 387.052023 57.020875 
L 388.716763 59.012677 
L 390.381503 61.354772 
L 392.046243 64.110097 
L 393.710983 67.373958 
L 394.940097 70.193548 
L 396.464548 74.322581 
L 397.719544 78.451613 
L 398.750624 82.580645 
L 399.771338 87.741935 
L 400.532957 92.903226 
L 401.064649 98.064516 
L 401.387222 103.225806 
L 401.515052 108.387097 
L 401.424788 114.580645 
L 401.078776 120.774194 
L 400.48212 126.967742 
L 399.633575 133.16129 
L 398.526861 139.354839 
L 397.398113 144.516129 
L 396.068811 149.677419 
L 394.52298 154.83871 
L 392.737115 160 
L 390.676963 165.16129 
L 388.716763 169.460465 
L 386.675967 173.419355 
L 384.554913 177.066872 
L 382.187441 180.645161 
L 380.393064 183.053548 
L 377.895954 186.004206 
L 375.398844 188.527107 
L 372.901734 190.65042 
L 370.404624 192.394109 
L 367.907514 193.770421 
L 365.410405 194.786122 
L 363.745665 195.263311 
L 362.080925 195.580123 
L 360.416185 195.733503 
L 358.751445 195.720473 
L 357.086705 195.536304 
L 355.421965 195.174432 
L 355.421965 195.174432 
" style="fill:none;stroke:#aed6f1;"/>
   </g>
   <g id="LineCollection_5">
    <path clip-path="url(#pcd813fbe6a)" d="M 352.092486 213.762318 
L 349.595376 212.84267 
L 347.185722 211.612903 
L 345.433526 210.497359 
L 343.768786 209.247652 
L 341.774274 207.483871 
L 339.786765 205.419355 
L 337.942197 203.1928 
L 335.857378 200.258065 
L 333.969163 197.16129 
L 332.329276 194.064516 
L 330.888458 190.967742 
L 329.22085 186.83871 
L 327.794605 182.709677 
L 326.571608 178.580645 
L 325.289301 173.419355 
L 324.244578 168.258065 
L 323.411144 163.096774 
L 322.661235 156.903226 
L 322.161554 150.709677 
L 321.889091 144.516129 
L 321.834696 138.322581 
L 321.989125 132.129032 
L 322.344272 125.935484 
L 322.959538 119.201083 
L 323.653865 113.548387 
L 324.789277 106.322581 
L 325.988042 100.129032 
L 327.406344 93.935484 
L 329.057481 87.741935 
L 330.960933 81.548387 
L 333.144714 75.354839 
L 335.445087 69.631187 
L 337.517738 65.032258 
L 339.606936 60.849646 
L 342.104046 56.356452 
L 344.601156 52.347897 
L 347.287082 48.516129 
L 349.729614 45.419355 
L 352.497787 42.322581 
L 354.589595 40.251515 
L 357.086705 38.072271 
L 359.687577 36.129032 
L 362.080925 34.618749 
L 364.578035 33.329689 
L 367.075145 32.326264 
L 369.572254 31.608343 
L 372.069364 31.178922 
L 374.566474 31.042594 
L 377.063584 31.206081 
L 379.560694 31.683037 
L 382.057803 32.488938 
L 384.554913 33.645171 
L 386.928096 35.096774 
L 388.716763 36.429767 
L 390.711275 38.193548 
L 392.698784 40.258065 
L 394.543353 42.484619 
L 396.628171 45.419355 
L 398.516386 48.516129 
L 400.156273 51.612903 
L 401.597092 54.709677 
L 403.264699 58.83871 
L 404.690944 62.967742 
L 405.913941 67.096774 
L 407.196248 72.258065 
L 408.240971 77.419355 
L 409.074406 82.580645 
L 409.824314 88.774194 
L 410.323995 94.967742 
L 410.596459 101.16129 
L 410.650853 107.354839 
L 410.496424 113.548387 
L 410.141277 119.741935 
L 409.526012 126.476337 
L 408.831684 132.129032 
L 407.696272 139.354839 
L 406.497508 145.548387 
L 405.079205 151.741935 
L 403.428068 157.935484 
L 401.524616 164.129032 
L 399.340835 170.322581 
L 397.040462 176.046232 
L 394.967811 180.645161 
L 392.878613 184.827774 
L 390.381503 189.320967 
L 387.884393 193.329522 
L 385.198467 197.16129 
L 382.755935 200.258065 
L 379.987762 203.354839 
L 377.895954 205.425904 
L 375.398844 207.605149 
L 372.797972 209.548387 
L 370.404624 211.058671 
L 367.907514 212.34773 
L 365.410405 213.351156 
L 362.913295 214.069076 
L 360.416185 214.498498 
L 357.919075 214.634826 
L 355.421965 214.471338 
L 352.924855 213.994382 
L 352.092486 213.762318 
L 352.092486 213.762318 
" style="fill:none;stroke:#d6eaf8;"/>
   </g>
   <g id="LineCollection_6">
    <path clip-path="url(#pcd813fbe6a)" d="M 350.427746 239.532091 
L 347.930636 238.889599 
L 345.433526 237.981311 
L 342.936416 236.795239 
L 340.439306 235.312311 
L 337.942197 233.515946 
L 335.445087 231.374259 
L 332.947977 228.855763 
L 330.450867 225.914013 
L 327.953757 222.493679 
L 326.266789 219.870968 
L 324.47551 216.774194 
L 322.365956 212.645161 
L 320.462428 208.379419 
L 318.797688 204.134618 
L 317.115077 199.225806 
L 315.586804 194.064516 
L 314.274309 188.903226 
L 312.955369 182.709677 
L 311.876859 176.516129 
L 311.022461 170.322581 
L 310.373771 164.129032 
L 309.91182 157.935484 
L 309.603471 150.709677 
L 309.522669 143.483871 
L 309.666792 136.258065 
L 310.022165 129.032258 
L 310.59585 121.806452 
L 311.380257 114.580645 
L 312.375564 107.354839 
L 313.59071 100.129032 
L 315.254673 91.870968 
L 317.132948 83.990986 
L 318.797688 77.862948 
L 320.48924 72.258065 
L 322.558873 66.064516 
L 324.864758 59.870968 
L 327.429815 53.677419 
L 329.792972 48.516129 
L 332.389411 43.354839 
L 335.445087 37.878678 
L 337.942197 33.826087 
L 340.568079 29.935484 
L 343.653927 25.806452 
L 346.265896 22.658068 
L 349.068251 19.612903 
L 351.260116 17.456125 
L 353.757225 15.233009 
L 356.254335 13.252329 
L 358.988474 11.354839 
L 361.248555 9.986747 
L 363.745665 8.694886 
L 366.242775 7.627461 
L 368.739884 6.783289 
L 371.236994 6.165861 
L 373.734104 5.769317 
L 376.231214 5.604699 
L 378.728324 5.674308 
L 381.225434 5.985703 
L 383.722543 6.544452 
L 386.219653 7.364627 
L 388.716763 8.455864 
L 391.213873 9.83541 
L 393.710983 11.525846 
L 396.208092 13.549399 
L 398.705202 15.937148 
L 401.202312 18.73291 
L 403.699422 21.985926 
L 405.575087 24.774194 
L 407.861272 28.632524 
L 409.618437 32 
L 411.527334 36.129032 
L 413.207705 40.258065 
L 415.038211 45.419355 
L 416.612699 50.580645 
L 417.963678 55.741935 
L 419.121015 60.903226 
L 420.273952 67.096774 
L 421.199091 73.290323 
L 421.91667 79.483871 
L 422.510021 86.709677 
L 422.851554 93.935484 
L 422.965325 101.16129 
L 422.843931 108.634619 
L 422.527533 115.612903 
L 421.98287 122.83871 
L 421.229873 130.064516 
L 420.109985 138.322581 
L 418.894839 145.548387 
L 417.230877 153.806452 
L 415.352601 161.686433 
L 413.687861 167.814471 
L 411.996309 173.419355 
L 409.926676 179.612903 
L 407.620791 185.806452 
L 405.055734 192 
L 402.692578 197.16129 
L 400.096138 202.322581 
L 397.040462 207.798741 
L 394.543353 211.851333 
L 391.91747 215.741935 
L 388.831622 219.870968 
L 386.219653 223.019351 
L 383.417298 226.064516 
L 381.225434 228.221294 
L 378.728324 230.44441 
L 376.231214 232.42509 
L 373.497075 234.322581 
L 371.236994 235.690673 
L 368.739884 236.982534 
L 366.242775 238.049958 
L 363.745665 238.89413 
L 361.248555 239.511558 
L 358.751445 239.908102 
L 356.254335 240.07272 
L 353.757225 240.003112 
L 351.260116 239.691716 
L 350.427746 239.532091 
L 350.427746 239.532091 
" style="fill:none;stroke:#ebf5fb;"/>
   </g>
   <g id="line2d_1">
    <path clip-path="url(#pcd813fbe6a)" d="M 416.184971 19.612903 
L 410.794521 23.623862 
" style="fill:none;stroke:#fbcfcf;stroke-linecap:square;stroke-width:1.5;"/>
   </g>
   <g id="line2d_2">
    <path clip-path="url(#pcd813fbe6a)" d="M 410.794521 23.623862 
L 404.181089 29.103909 
" style="fill:none;stroke:#fbcfcf;stroke-linecap:square;stroke-width:1.5;"/>
   </g>
   <g id="line2d_3">
    <path clip-path="url(#pcd813fbe6a)" d="M 404.181089 29.103909 
L 396.270958 36.731465 
" style="fill:none;stroke:#fbcfcf;stroke-linecap:square;stroke-width:1.5;"/>
   </g>
   <g id="line2d_4">
    <path clip-path="url(#pcd813fbe6a)" d="M 396.270958 36.731465 
L 387.397337 47.395232 
" style="fill:none;stroke:#fbcfcf;stroke-linecap:square;stroke-width:1.5;"/>
   </g>
   <g id="line2d_5">
    <path clip-path="url(#pcd813fbe6a)" d="M 387.397337 47.395232 
L 378.911039 61.64681 
" style="fill:none;stroke:#fbcfcf;stroke-linecap:square;stroke-width:1.5;"/>
   </g>
   <g id="line2d_6">
    <path clip-path="url(#pcd813fbe6a)" d="M 378.911039 61.64681 
L 372.917172 78.474021 
" style="fill:none;stroke:#fbcfcf;stroke-linecap:square;stroke-width:1.5;"/>
   </g>
   <g id="line2d_7">
    <path clip-path="url(#pcd813fbe6a)" d="M 372.917172 78.474021 
L 369.989016 94.652017 
" style="fill:none;stroke:#fbcfcf;stroke-linecap:square;stroke-width:1.5;"/>
   </g>
   <g id="line2d_8">
    <path clip-path="url(#pcd813fbe6a)" d="M 369.989016 94.652017 
L 368.44478 106.788481 
" style="fill:none;stroke:#fbcfcf;stroke-linecap:square;stroke-width:1.5;"/>
   </g>
   <g id="line2d_9">
    <path clip-path="url(#pcd813fbe6a)" d="M 368.44478 106.788481 
L 367.411168 114.2102 
" style="fill:none;stroke:#fbcfcf;stroke-linecap:square;stroke-width:1.5;"/>
   </g>
   <g id="line2d_10">
    <path clip-path="url(#pcd813fbe6a)" d="M 367.411168 114.2102 
L 366.860923 118.305418 
" style="fill:none;stroke:#fbcfcf;stroke-linecap:square;stroke-width:1.5;"/>
   </g>
   <g id="line2d_11">
    <path clip-path="url(#pcd813fbe6a)" d="M 366.860923 118.305418 
L 366.564093 120.472508 
" style="fill:none;stroke:#fbcfcf;stroke-linecap:square;stroke-width:1.5;"/>
   </g>
   <g id="line2d_12">
    <path clip-path="url(#pcd813fbe6a)" d="M 366.564093 120.472508 
L 366.410571 121.606245 
" style="fill:none;stroke:#fbcfcf;stroke-linecap:square;stroke-width:1.5;"/>
   </g>
   <g id="line2d_13">
    <path clip-path="url(#pcd813fbe6a)" d="M 366.410571 121.606245 
L 366.329993 122.197028 
" style="fill:none;stroke:#fbcfcf;stroke-linecap:square;stroke-width:1.5;"/>
   </g>
   <g id="line2d_14">
    <path clip-path="url(#pcd813fbe6a)" d="M 416.184971 19.612903 
" style="fill:none;stroke:#f58888;stroke-linecap:square;stroke-width:1.5;"/>
    <defs>
     <path d="M 0 1 
C 0.265203 1 0.51958 0.894634 0.707107 0.707107 
C 0.894634 0.51958 1 0.265203 1 0 
C 1 -0.265203 0.894634 -0.51958 0.707107 -0.707107 
C 0.51958 -0.894634 0.265203 -1 0 -1 
C -0.265203 -1 -0.51958 -0.894634 -0.707107 -0.707107 
C -0.894634 -0.51958 -1 -0.265203 -1 0 
C -1 0.265203 -0.894634 0.51958 -0.707107 0.707107 
C -0.51958 0.894634 -0.265203 1 0 1 
z
" id="m3150203a0b" style="stroke:#f58888;"/>
    </defs>
    <g clip-path="url(#pcd813fbe6a)">
     <use style="fill:#f58888;stroke:#f58888;" x="416.184971" xlink:href="#m3150203a0b" y="19.612903"/>
    </g>
   </g>
   <g id="line2d_15">
    <path clip-path="url(#pcd813fbe6a)" d="M 410.794521 23.623862 
" style="fill:none;stroke:#f58888;stroke-linecap:square;stroke-width:1.5;"/>
    <g clip-path="url(#pcd813fbe6a)">
     <use style="fill:#f58888;stroke:#f58888;" x="410.794521" xlink:href="#m3150203a0b" y="23.623862"/>
    </g>
   </g>
   <g id="line2d_16">
    <path clip-path="url(#pcd813fbe6a)" d="M 404.181089 29.103909 
" style="fill:none;stroke:#f58888;stroke-linecap:square;stroke-width:1.5;"/>
    <g clip-path="url(#pcd813fbe6a)">
     <use style="fill:#f58888;stroke:#f58888;" x="404.181089" xlink:href="#m3150203a0b" y="29.103909"/>
    </g>
   </g>
   <g id="line2d_17">
    <path clip-path="url(#pcd813fbe6a)" d="M 396.270958 36.731465 
" style="fill:none;stroke:#f58888;stroke-linecap:square;stroke-width:1.5;"/>
    <g clip-path="url(#pcd813fbe6a)">
     <use style="fill:#f58888;stroke:#f58888;" x="396.270958" xlink:href="#m3150203a0b" y="36.731465"/>
    </g>
   </g>
   <g id="line2d_18">
    <path clip-path="url(#pcd813fbe6a)" d="M 387.397337 47.395232 
" style="fill:none;stroke:#f58888;stroke-linecap:square;stroke-width:1.5;"/>
    <g clip-path="url(#pcd813fbe6a)">
     <use style="fill:#f58888;stroke:#f58888;" x="387.397337" xlink:href="#m3150203a0b" y="47.395232"/>
    </g>
   </g>
   <g id="line2d_19">
    <path clip-path="url(#pcd813fbe6a)" d="M 378.911039 61.64681 
" style="fill:none;stroke:#f58888;stroke-linecap:square;stroke-width:1.5;"/>
    <g clip-path="url(#pcd813fbe6a)">
     <use style="fill:#f58888;stroke:#f58888;" x="378.911039" xlink:href="#m3150203a0b" y="61.64681"/>
    </g>
   </g>
   <g id="line2d_20">
    <path clip-path="url(#pcd813fbe6a)" d="M 372.917172 78.474021 
" style="fill:none;stroke:#f58888;stroke-linecap:square;stroke-width:1.5;"/>
    <g clip-path="url(#pcd813fbe6a)">
     <use style="fill:#f58888;stroke:#f58888;" x="372.917172" xlink:href="#m3150203a0b" y="78.474021"/>
    </g>
   </g>
   <g id="line2d_21">
    <path clip-path="url(#pcd813fbe6a)" d="M 369.989016 94.652017 
" style="fill:none;stroke:#f58888;stroke-linecap:square;stroke-width:1.5;"/>
    <g clip-path="url(#pcd813fbe6a)">
     <use style="fill:#f58888;stroke:#f58888;" x="369.989016" xlink:href="#m3150203a0b" y="94.652017"/>
    </g>
   </g>
   <g id="line2d_22">
    <path clip-path="url(#pcd813fbe6a)" d="M 368.44478 106.788481 
" style="fill:none;stroke:#f58888;stroke-linecap:square;stroke-width:1.5;"/>
    <g clip-path="url(#pcd813fbe6a)">
     <use style="fill:#f58888;stroke:#f58888;" x="368.44478" xlink:href="#m3150203a0b" y="106.788481"/>
    </g>
   </g>
   <g id="line2d_23">
    <path clip-path="url(#pcd813fbe6a)" d="M 367.411168 114.2102 
" style="fill:none;stroke:#f58888;stroke-linecap:square;stroke-width:1.5;"/>
    <g clip-path="url(#pcd813fbe6a)">
     <use style="fill:#f58888;stroke:#f58888;" x="367.411168" xlink:href="#m3150203a0b" y="114.2102"/>
    </g>
   </g>
   <g id="line2d_24">
    <path clip-path="url(#pcd813fbe6a)" d="M 366.860923 118.305418 
" style="fill:none;stroke:#f58888;stroke-linecap:square;stroke-width:1.5;"/>
    <g clip-path="url(#pcd813fbe6a)">
     <use style="fill:#f58888;stroke:#f58888;" x="366.860923" xlink:href="#m3150203a0b" y="118.305418"/>
    </g>
   </g>
   <g id="line2d_25">
    <path clip-path="url(#pcd813fbe6a)" d="M 366.564093 120.472508 
" style="fill:none;stroke:#f58888;stroke-linecap:square;stroke-width:1.5;"/>
    <g clip-path="url(#pcd813fbe6a)">
     <use style="fill:#f58888;stroke:#f58888;" x="366.564093" xlink:href="#m3150203a0b" y="120.472508"/>
    </g>
   </g>
   <g id="line2d_26">
    <path clip-path="url(#pcd813fbe6a)" d="M 366.410571 121.606245 
" style="fill:none;stroke:#f58888;stroke-linecap:square;stroke-width:1.5;"/>
    <g clip-path="url(#pcd813fbe6a)">
     <use style="fill:#f58888;stroke:#f58888;" x="366.410571" xlink:href="#m3150203a0b" y="121.606245"/>
    </g>
   </g>
  </g>
 </g>
 <defs>
  <clipPath id="pcd813fbe6a">
   <rect height="288" width="432" x="0" y="0"/>
  </clipPath>
 </defs>
</svg>
